<svg xmlns="http://www.w3.org/2000/svg" viewBox="0 0 64 64" width="96" height="96">
	<title>Beam WRT</title>
	<defs>
		<linearGradient id="bw-bg" x1="0" y1="64" x2="64" y2="0" gradientUnits="userSpaceOnUse">
			<stop offset="0" stop-color="#4f46e5"/>
			<stop offset="1" stop-color="#06b6d4"/>
		</linearGradient>
		<linearGradient id="bw-ray" x1="14" y1="32" x2="62" y2="32" gradientUnits="userSpaceOnUse">
			<stop offset="0" stop-color="#fff" stop-opacity=".55"/>
			<stop offset="1" stop-color="#fff" stop-opacity="0"/>
		</linearGradient>
	</defs>
	<rect width="96" height="96" rx="15" fill="url(#bw-bg)"/>
	<path d="M30 32 L62 22 L62 42 Z" fill="url(#bw-ray)"/>
	<g fill="none" stroke="#fff" stroke-width="5" stroke-linecap="round" stroke-linejoin="round">
		<path d="M17 14 V50"/>
		<path d="M17 14 H26 A8.5 8.5 0 0 1 26 31 H17"/>
		<path d="M17 31 H28 A9.5 9.5 0 0 1 28 50 H17"/>
	</g>
	<g fill="none" stroke="#fff" stroke-linecap="round">
		<path d="M44 24 A12 12 0 0 1 44 40" stroke-width="3.6" stroke-opacity=".9"/>
		<path d="M50.5 19 A18 18 0 0 1 50.5 45" stroke-width="3.2" stroke-opacity=".6"/>
	</g>
</svg>
